<?xml version="1.0" encoding="utf-8"?>
<!-- Generator: Adobe Illustrator 18.1.0, SVG Export Plug-In . SVG Version: 6.00 Build 0)  -->
<!DOCTYPE svg PUBLIC "-//W3C//DTD SVG 1.1//EN" "http://www.w3.org/Graphics/SVG/1.1/DTD/svg11.dtd">
<svg version="1.1" xmlns="http://www.w3.org/2000/svg" xmlns:xlink="http://www.w3.org/1999/xlink" x="0px" y="0px"
	 viewBox="0 0 282.3 214.8" enable-background="new 0 0 282.3 214.8" xml:space="preserve">
<g id="Layer_2">
	<rect x="117.9" y="164.7" fill="#C0E3EA" width="46.8" height="38.6"/>
</g>
<g id="Layer_1">
	<g>
		
			<path fill="#C0E3EA" stroke="#2671A5" stroke-width="20" stroke-linecap="round" stroke-linejoin="round" stroke-miterlimit="10" d="
			M260.8,159.8H21.5c-6.4,0-11.5-5.2-11.5-11.5V21.5C10,15.2,15.2,10,21.5,10h239.3c6.4,0,11.5,5.2,11.5,11.5v126.7
			C272.3,154.6,267.2,159.8,260.8,159.8z"/>
		<g>
			
				<path fill="none" stroke="#2671A5" stroke-width="14" stroke-linecap="round" stroke-linejoin="round" stroke-miterlimit="10" d="
				M121.2,164.7c0,0,1,42.2-34.7,42"/>
			
				<path fill="none" stroke="#2671A5" stroke-width="14" stroke-linecap="round" stroke-linejoin="round" stroke-miterlimit="10" d="
				M159.3,164.7c0,0-1,42.2,34.7,42"/>
			
				<line fill="none" stroke="#2671A5" stroke-width="14" stroke-linecap="round" stroke-linejoin="round" stroke-miterlimit="10" x1="86.2" y1="207.8" x2="194.2" y2="207.8"/>
		</g>
		<g>
			<line fill="#2671A5" x1="140.3" y1="64.6" x2="189.1" y2="112.1"/>
			<g>
				
					<line fill="none" stroke="#2671A5" stroke-width="10" stroke-linecap="round" stroke-linejoin="round" x1="162.5" y1="86.2" x2="189.1" y2="112.1"/>
				<g>
					<polygon fill="#2671A5" points="159.6,110.2 167.2,90.7 186.4,82.6 140.3,64.6 					"/>
				</g>
			</g>
		</g>
	</g>
</g>
</svg>
