<?xml version="1.0" encoding="utf-8"?>
<!-- Generator: Adobe Illustrator 18.1.0, SVG Export Plug-In . SVG Version: 6.00 Build 0)  -->
<!DOCTYPE svg PUBLIC "-//W3C//DTD SVG 1.1//EN" "http://www.w3.org/Graphics/SVG/1.1/DTD/svg11.dtd">
<svg version="1.1" id="Layer_1" xmlns="http://www.w3.org/2000/svg" xmlns:xlink="http://www.w3.org/1999/xlink" x="0px" y="0px"
	 viewBox="0 0 318.4 312" enable-background="new 0 0 318.4 312" xml:space="preserve">
<g>
	<path fill="#BFE3EA" d="M285.6,24c0-8-8.5-13-16.5-13H48.6c-8,0-13,5.1-13,13v151h250V24z"/>
	<polygon fill="#BFE3EA" points="285.1,186 32.9,186 10.5,271 307.5,271 	"/>
	<path fill="#BFE3EA" d="M11.6,289.5c0,6.1,2.3,11.5,8.3,11.5h278.1c6.1,0,10.5-5.4,10.5-11.5V281h-297V289.5z"/>
	<path fill="#2571A5" d="M295.6,178.2V24c0-13.6-12.8-24-26.5-24H48.6c-13.6,0-24,10.4-24,24v154.6L0.3,270.5
		c0,0.6-0.3,19.2-0.3,19.2C0,301.4,8.2,312,19.9,312h278.1c11.7,0,20.3-10.6,20.3-22.3c0,0,0.2-18.6,0-19.2L295.6,178.2z M35.6,24
		c0-8,5-13,13-13h220.5c8,0,16.5,5.1,16.5,13v151h-250V24z M32.9,186h252.1l22.5,85H10.5L32.9,186z M308.6,289.5
		c0,6.1-4.5,11.5-10.5,11.5H19.9c-6.1,0-8.3-5.4-8.3-11.5V281h297V289.5z"/>
</g>
<g>
	<path fill="#2571A5" d="M214.7,248.2C214.7,248.2,214.7,248.2,214.7,248.2H111.1c-1,0-2-0.5-2.7-1.3c-0.7-0.8-0.9-1.9-0.7-2.9
		l7.2-32.5c0.3-1.6,1.7-2.7,3.3-2.7h89.1c1.6,0,3,1.1,3.3,2.7l7.1,32.2c0.1,0.3,0.2,0.7,0.2,1.1
		C218.1,246.7,216.6,248.2,214.7,248.2z M115.3,241.4h95.1l-5.7-25.7H121L115.3,241.4z"/>
</g>
<path fill="#FFFFFF" d="M262.2,160.2H56.8c-4,0-7.2-3.2-7.2-7.2V34.8c0-4,3.2-7.2,7.2-7.2h205.4c4,0,7.2,3.2,7.2,7.2V153
	C269.4,156.9,266.1,160.2,262.2,160.2z"/>
<circle fill="#2571A5" cx="146" cy="90.8" r="23"/>
<circle fill="#2571A5" cx="149.4" cy="142.5" r="10.8"/>
<circle fill="#2571A5" cx="105.8" cy="127.5" r="18.9"/>
<circle fill="#2571A5" cx="97.3" cy="68.6" r="18.9"/>
<circle fill="#2571A5" cx="67.4" cy="103.8" r="10.8"/>
<circle fill="#2571A5" cx="148" cy="43.8" r="10.8"/>
<g>
	<path fill="#2571A5" d="M250.4,72h-58.8c-2.5,0-4.6-2-4.6-4.5s2-4.5,4.6-4.5h58.8c2.5,0,4.6,2,4.6,4.5S253,72,250.4,72z"/>
</g>
<g>
	<path fill="#2571A5" d="M250.4,97h-58.8c-2.5,0-4.6-2-4.6-4.5s2-4.5,4.6-4.5h58.8c2.5,0,4.6,2,4.6,4.5S253,97,250.4,97z"/>
</g>
<g>
	<path fill="#2571A5" d="M250.4,122h-58.8c-2.5,0-4.6-2-4.6-4.5s2-4.5,4.6-4.5h58.8c2.5,0,4.6,2,4.6,4.5S253,122,250.4,122z"/>
</g>
<path fill="#2571A5" d="M264,162.2H56.2c-4.6,0-8.4-3.8-8.4-8.4V34.1c0-4.6,3.8-8.4,8.4-8.4H264c4.6,0,8.4,3.8,8.4,8.4v119.7
	C272.4,158.4,268.6,162.2,264,162.2z M56.2,28.8c-3,0-5.4,2.4-5.4,5.4v119.7c0,3,2.4,5.4,5.4,5.4H264c3,0,5.4-2.4,5.4-5.4V34.1
	c0-3-2.4-5.4-5.4-5.4H56.2z"/>
</svg>
