<?xml version="1.0" encoding="utf-8"?>
<!-- Generator: Adobe Illustrator 18.1.0, SVG Export Plug-In . SVG Version: 6.00 Build 0)  -->
<!DOCTYPE svg PUBLIC "-//W3C//DTD SVG 1.1//EN" "http://www.w3.org/Graphics/SVG/1.1/DTD/svg11.dtd">
<svg version="1.1" id="Layer_1" xmlns="http://www.w3.org/2000/svg" xmlns:xlink="http://www.w3.org/1999/xlink" x="0px" y="0px"
	 viewBox="0 0 318.4 312" style="enable-background:new 0 0 318.4 312;" xml:space="preserve">
<g>
	<path style="fill:#FFFFFF;" d="M285.6,24c0-8-8.5-13-16.5-13H48.6c-8,0-13,5.1-13,13v151h250V24z"/>
	<polygon style="fill:#FFFFFF;" points="285.1,186 32.9,186 10.5,271 307.5,271 	"/>
	<path style="fill:#FFFFFF;" d="M11.6,289.5c0,6.1,2.3,11.5,8.3,11.5h278.1c6.1,0,10.5-5.4,10.5-11.5V281h-297V289.5z"/>
	<path style="fill:#A3A3A3;" d="M295.6,178.2V24c0-13.6-12.8-24-26.5-24H48.6c-13.6,0-24,10.4-24,24v154.6L0.3,270.5
		c0,0.6-0.3,19.2-0.3,19.2C0,301.4,8.2,312,19.9,312h278.1c11.7,0,20.3-10.6,20.3-22.3c0,0,0.2-18.6,0-19.2L295.6,178.2z M35.6,24
		c0-8,5-13,13-13h220.5c8,0,16.5,5.1,16.5,13v151h-250V24z M32.9,186h252.1l22.5,85H10.5L32.9,186z M308.6,289.5
		c0,6.1-4.5,11.5-10.5,11.5H19.9c-6.1,0-8.3-5.4-8.3-11.5V281h297V289.5z"/>
</g>
<g>
	<path style="fill:#A3A3A3;" d="M214.7,248.2C214.7,248.2,214.7,248.2,214.7,248.2H111.1c-1,0-2-0.5-2.7-1.3
		c-0.7-0.8-0.9-1.9-0.7-2.9l7.2-32.5c0.3-1.6,1.7-2.7,3.3-2.7h89.1c1.6,0,3,1.1,3.3,2.7l7.1,32.2c0.1,0.3,0.2,0.7,0.2,1.1
		C218.1,246.7,216.6,248.2,214.7,248.2z M115.3,241.4h95.1l-5.7-25.7H121L115.3,241.4z"/>
</g>
<path style="fill:none;stroke:#A3A3A3;stroke-width:3;stroke-miterlimit:10;" d="M264,160.7H56.2c-3.8,0-6.9-3.1-6.9-6.9V34.1
	c0-3.8,3.1-6.9,6.9-6.9H264c3.8,0,6.9,3.1,6.9,6.9v119.7C270.9,157.6,267.8,160.7,264,160.7z"/>
<g>
	<g>
		<path style="fill:#C0BFC0;" d="M116.6,92.4V63.8c0-7.4,6-13.3,13.3-13.3h54.6v-6.7H130c-11,0-20,9-20,20v28.6H116.6z"/>
		<path style="fill:#C0BFC0;" d="M203.8,92.4v31.8c0,7.4-6,13.3-13.3,13.3H136v6.7h54.5c11,0,20-9,20-20V92.4H203.8z"/>
	</g>
	<rect x="187.7" y="43.8" style="fill:#A3A3A3;" width="22.7" height="22.5"/>
	<rect x="109.9" y="121.6" style="fill:#A3A3A3;" width="22.7" height="22.5"/>
	<rect x="135.8" y="95.7" style="fill:#4F4F4F;" width="22.7" height="22.5"/>
	<rect x="161.9" y="69.9" style="fill:#4F4F4F;" width="22.7" height="22.5"/>
	<path style="fill:#7A7A7A;" d="M158.5,69.7C146.1,69.8,136,79.9,136,92.4h22.5V69.7z"/>
	<path style="fill:#7A7A7A;" d="M161.9,118.4c12.4-0.1,22.5-10.2,22.5-22.7h-22.5V118.4z"/>
	<path style="fill:#A3A3A3;" d="M187.9,92.4c12.4-0.1,22.5-10.2,22.5-22.7h-22.5V92.4z"/>
	<path style="fill:#A3A3A3;" d="M132.5,95.5C120,95.6,110,105.8,110,118.2h22.5V95.5z"/>
</g>
</svg>
