<svg id="Layer_1" data-name="Layer 1" xmlns="http://www.w3.org/2000/svg" viewBox="0 0 1060.32 144.09"><defs><style>.cls-1{font-size:50.14px;font-family:Montserrat;font-weight:700;}.cls-1,.cls-5{fill:#bf063b;}.cls-2{letter-spacing:-2px;}.cls-3{font-size:74.68px;letter-spacing:-1px;}.cls-3,.cls-6{fill:#65666a;}.cls-4{letter-spacing:-3px;}.cls-7{fill:#fff;}</style></defs><title>GDCNCI-documentations</title><text class="cls-1" transform="translate(259.31 55.56)">N<tspan class="cls-2" x="40.96" y="0">A</tspan><tspan x="75.76" y="0">TIONAL </tspan><tspan x="284.14" y="0">C</tspan><tspan x="320.59" y="0">ANCER IN</tspan><tspan x="575.49" y="0">S</tspan><tspan x="607.18" y="0">TITUTE</tspan><tspan class="cls-3"><tspan x="0" y="74.68">GDC</tspan><tspan class="cls-2" x="163.61" y="74.68"> </tspan><tspan class="cls-4" x="180.34" y="74.68">D</tspan><tspan class="cls-2" x="234.26" y="74.68">o</tspan><tspan x="279.73" y="74.68">cume</tspan><tspan class="cls-2" x="484.57" y="74.68">n</tspan><tspan x="530.2" y="74.68">t</tspan><tspan x="561.56" y="74.68">a</tspan><tspan x="603.97" y="74.68">tions</tspan></tspan></text><path class="cls-5" d="M183.77,0H171.42L210,71l-40.13,72h12.45a13,13,0,0,0,11.32-6.65L230.07,71,195.16,6.77A13,13,0,0,0,183.77,0Z"/><path class="cls-6" d="M160.52,0.51H10.8A10.8,10.8,0,0,0,0,11.31V132.74a10.8,10.8,0,0,0,10.8,10.8H159l40.13-72Z"/><polygon class="cls-7" points="65.32 85.44 33.6 37.67 23.73 37.67 23.73 103.32 33.76 103.32 33.76 56.67 64.58 103.17 64.68 103.32 75.34 103.32 75.34 37.67 65.32 37.67 65.32 85.44"/><rect class="cls-7" x="87.02" y="37.67" width="11.26" height="65.65"/><polygon class="cls-7" points="150.78 37.67 150.78 65.84 120.28 65.84 120.28 37.67 109.01 37.67 109.01 103.32 120.28 103.32 120.28 76.73 150.78 76.73 150.78 103.32 162.04 103.32 162.04 37.67 150.78 37.67"/></svg>